<?xml version="1.0"?>
<svg xmlns="http://www.w3.org/2000/svg" enable-background="new 0 0 140 140" height="512px" viewBox="0 0 140 140" width="512px" class=""><g><circle cx="70" cy="70" fill="#4abba4" r="64" data-original="#4ABBA4" class="" style="fill:#2780E3" data-old_color="#4abba4"/><path d="m99.4310684 34.4074364c-.4120483-.4404297-.9935303-.7180176-1.6443481-.7180176h-55.3699951c-1.3599854 0-2.4699707 1.1000977-2.4699707 2.4699707v67.6799316c0 .673584.2704468 1.2800293.704834 1.7246094l-.0006104.0002441.0046997.0046387c.0115967.0117188.0231323.0234375.0349731.0349121l28.3725586 28.3725662c.3131104.0046387.6225586.0236816.9367676.0236816 35.3463135 0 64.0000076-28.6538162 64.0000076-64.0000076 0-.3522949-.020874-.6992188-.0265503-1.050293z" opacity=".1" data-original="#000000" class="" style="fill:#2780E3" data-old_color="#000000"/><path d="m97.7832413 33.688221h-51.925499c-1.362957 0-2.4678535 1.1050301-2.4678535 2.4677238v67.6881104c0 1.3629608 1.1048965 2.46772 2.4678535 2.46772h51.925499c1.2516632 0 2.2663727-1.0147095 2.2663727-2.2661057v-68.091072c0-1.2516594-1.0147095-2.2663765-2.2663727-2.2663765z" fill="#f2c555" data-original="#F2C555" class="" style="fill:#FF7518" data-old_color="#f2c555"/><path d="m96.4055786 34.9834442h-50.0732498c-1.3143501 0-2.3797989 1.0657158-2.3797989 2.3797989v65.2735138c0 1.3143463 1.0654488 2.3795319 2.3797989 2.3795319h50.0732498c1.2070312 0 2.1854858-.9783249 2.1854858-2.1850891v-65.6621323c.0000001-1.2070351-.9784545-2.1856232-2.1854858-2.1856232z" fill="#ededed" data-original="#EDEDED" class="" style="fill:#F8F9FA" data-old_color="#ededed"/><path d="m94.3437424 33.688221h-51.9255028c-1.3629608 0-2.4678574 1.1050301-2.4678574 2.4677238v67.6881104c0 1.3629608 1.1048965 2.46772 2.4678574 2.46772h51.9255028c1.2516556 0 2.2663727-1.0147095 2.2663727-2.2661057v-68.091072c0-1.2516594-1.0147172-2.2663765-2.2663727-2.2663765z" fill="#feda6f" data-original="#FEDA6F" class="" style="fill:#FF7518" data-old_color="#feda6f"/><path d="m42.4182396 33.688221c-1.3629608 0-2.4678574 1.1050301-2.4678574 2.4677238v67.6881104c0 1.3629608 1.1048965 2.46772 2.4678574 2.46772h9.4401665v-72.6235542z" fill="#344d5b" data-original="#344D5B" class="" style="fill:#373A3C" data-old_color="#344d5b"/><g fill="#f9c953"><path d="m61.148476 43.705284h23.821711v2.748659h-23.821711z" data-original="#F9C953" class="active-path" style="fill:#9954BB" data-old_color="#F9C953"/><path d="m61.148476 48.836117h23.821711v2.748659h-23.821711z" data-original="#F9C953" class="active-path" style="fill:#9954BB" data-old_color="#F9C953"/><path d="m61.148476 53.966946h11.910855v2.748659h-11.910855z" data-original="#F9C953" class="active-path" style="fill:#9954BB" data-old_color="#F9C953"/></g></g> </svg>
