<?xml version="1.0" standalone="no"?>
<!DOCTYPE svg PUBLIC "-//W3C//DTD SVG 20010904//EN"
 "http://www.w3.org/TR/2001/REC-SVG-20010904/DTD/svg10.dtd">
<svg version="1.0" xmlns="http://www.w3.org/2000/svg"
 width="512.000000pt" height="512.000000pt" viewBox="0 0 512.000000 512.000000"
 preserveAspectRatio="xMidYMid meet">
<metadata>
Created by potrace 1.11, written by Peter Selinger 2001-2013
</metadata>
<g transform="translate(0.000000,512.000000) scale(0.100000,-0.100000)"
fill="#000000" stroke="none">
<path d="M1062 4386 l-37 -34 0 -1792 0 -1792 37 -34 38 -34 270 0 270 0 0
1860 0 1860 -270 0 -270 0 -38 -34z"/>
<path d="M3828 4410 c19 -4 46 -19 60 -32 15 -14 42 -31 61 -38 18 -7 42 -27
52 -44 18 -30 19 -86 19 -1736 0 -1650 -1 -1706 -19 -1736 -10 -17 -34 -37
-52 -44 -19 -7 -46 -24 -61 -38 -14 -13 -41 -28 -60 -32 -23 -6 -1 -8 75 -9
79 -1 116 3 137 14 64 33 60 -101 60 1847 0 1754 0 1773 -20 1806 -27 44 -54
52 -178 51 -76 -1 -97 -3 -74 -9z"/>
<path d="M2100 3835 l0 -75 615 0 615 0 0 75 0 75 -615 0 -615 0 0 -75z"/>
<path d="M2100 3575 l0 -75 615 0 615 0 0 75 0 75 -615 0 -615 0 0 -75z"/>
<path d="M2107 3383 c-4 -3 -7 -37 -7 -75 l0 -68 310 0 311 0 -3 73 -3 72
-301 3 c-165 1 -303 -1 -307 -5z"/>
</g>
</svg>
